# xmcd
#
# Track frame offsets:
#	150
#	13617
#	24633
#	40825
#	55447
#	70512
#	85227
#	98859
#	111372
#	128735
#	139338
#	154932
#	166291
#	181900
#	196587
#	209382
#	223659
#	236607
#	253965
#	269742
#	285057
#	299003
#	331564
#	343614
#
# Disc length: 4790 seconds
#
# Revision: 0
# Processed by: cddbd v1.5.2PL0 Copyright (c) Steve Scherf et al.
# Submitted via: EasyCDDAExtractor 12.0.1.1
#
DISCID=6612b418
DTITLE=Various Artist - Country Hits, Vol. 12
DYEAR=2009
DGENRE=Country
TTITLE0=Bellamy Brothers - Do You Love As Good As You Look
TTITLE1=Waylon Jennings - This Time
TTITLE2=Bellamy Brothers - Crazy From The Heart
TTITLE3=Martina McBride - Safe in The Arms of Love
TTITLE4=Randy Travis - Before You Kill Us All
TTITLE5=Bellamy Brothers - I Love Her Mind
TTITLE6=Waylon Jennings - Drinkin' and Dreamin'
TTITLE7=Patty Loveless - The Pain Of Loving You
TTITLE8=Bellamy Brothers - Hard Way To Make An Easy Livin
TTITLE9=Jann Browne - Think Of Me
TTITLE10=Bellamy Brothers - Kids Of The Baby Boom
TTITLE11=Waylon Jennings - Rainy Day Woman
TTITLE12=Bellamy Brothers - Cowboy Beat
TTITLE13=Martina McBride - Two More Bottles of Wine
TTITLE14=Waylon Jennings - Cedartown, Georgia
TTITLE15=Bellamy Brothers - What'll  I Do
TTITLE16=Patty Loveless - She Drew A Broken Heart
TTITLE17=Bellamy Brothers - When I'm Away From You
TTITLE18=Randy Travis - You Ain't Right (Previously Unreleased)
TTITLE19=Bellamy Brothers - Kids Of The Baby Boom
TTITLE20=Waylon Jennings - Storms Never Last
TTITLE21=Bellamy Brothers - Redneck Girl - Live
TTITLE22=Martina McBride - Pick Me Up On Your Way Down
TTITLE23=Bellamy Brothers - Cowboy Beat
EXTD=
EXTT0=
EXTT1=
EXTT2=
EXTT3=
EXTT4=
EXTT5=
EXTT6=
EXTT7=
EXTT8=
EXTT9=
EXTT10=
EXTT11=
EXTT12=
EXTT13=
EXTT14=
EXTT15=
EXTT16=
EXTT17=
EXTT18=
EXTT19=
EXTT20=
EXTT21=
EXTT22=
EXTT23=
PLAYORDER=
